<svg width="82" height="80" viewBox="0 0 82 80" fill="none" xmlns="http://www.w3.org/2000/svg">
<path d="M41 0C35.4091 0 31.0412 2.08832 27.8963 6.26495C24.7514 10.4416 23.179 15.7806 23.179 22.2819C23.1402 30.3594 25.7027 36.7622 30.8665 41.4905C31.5265 42.1209 31.7595 42.9287 31.5653 43.9137L30.2259 46.7507C29.7988 47.6963 29.1679 48.4351 28.3331 48.9671C27.4983 49.499 25.7415 50.2575 23.0625 51.2425C22.946 51.2819 20.4903 52.0897 15.6953 53.6658C10.9003 55.2419 8.34754 56.1087 8.03693 56.2663C4.77557 57.6454 2.64015 59.0836 1.63068 60.5809C0.543561 63.0632 0 69.3478 0 79.4348H82C82 69.3478 81.4564 63.0632 80.3693 60.5809C79.3598 59.0836 77.2244 57.6454 73.9631 56.2663C73.6525 56.1087 71.0997 55.2419 66.3047 53.6658C61.5097 52.0897 59.054 51.2819 58.9375 51.2425C56.2585 50.2575 54.5017 49.499 53.6669 48.9671C52.8321 48.4351 52.2012 47.6963 51.7741 46.7507L50.4347 43.9137C50.2405 42.9287 50.4735 42.1209 51.1335 41.4905C56.2973 36.7622 58.8598 30.3594 58.821 22.2819C58.821 15.7806 57.2486 10.4416 54.1037 6.26495C50.9588 2.08832 46.5909 0 41 0Z" fill="#6C6C6C"/>
</svg>
