<svg width="31" height="31" viewBox="0 0 31 31" fill="none" xmlns="http://www.w3.org/2000/svg">
<path fill-rule="evenodd" clip-rule="evenodd" d="M15.6667 0.666687C7.38266 0.666687 0.666748 7.3826 0.666748 15.6667C0.666748 23.9508 7.38266 30.6667 15.6667 30.6667C23.9508 30.6667 30.6667 23.9508 30.6667 15.6667C30.6667 7.3826 23.9508 0.666687 15.6667 0.666687ZM17.0304 21.1212C17.0304 21.4829 16.8867 21.8297 16.631 22.0855C16.3753 22.3412 16.0284 22.4849 15.6667 22.4849C15.3051 22.4849 14.9582 22.3412 14.7025 22.0855C14.4468 21.8297 14.3031 21.4829 14.3031 21.1212V17.0303H10.2122C9.85054 17.0303 9.5037 16.8867 9.24797 16.6309C8.99224 16.3752 8.84857 16.0283 8.84857 15.6667C8.84857 15.305 8.99224 14.9582 9.24797 14.7025C9.5037 14.4467 9.85054 14.3031 10.2122 14.3031H14.3031V10.2121C14.3031 9.85048 14.4468 9.50364 14.7025 9.24791C14.9582 8.99217 15.3051 8.84851 15.6667 8.84851C16.0284 8.84851 16.3753 8.99217 16.631 9.24791C16.8867 9.50364 17.0304 9.85048 17.0304 10.2121V14.3031H21.1213C21.483 14.3031 21.8298 14.4467 22.0855 14.7025C22.3413 14.9582 22.4849 15.305 22.4849 15.6667C22.4849 16.0283 22.3413 16.3752 22.0855 16.6309C21.8298 16.8867 21.483 17.0303 21.1213 17.0303H17.0304V21.1212Z" fill="white"/>
</svg>
